<svg xmlns="http://www.w3.org/2000/svg" width="112" height="24" viewBox="0 0 112 24">
    <path fill="#66F" fill-rule="nonzero" d="M5.45 23.67H0V1.187h5.45v22.485zm2.063-8.252v-1.285c0-4.958 3.046-8.384 8.15-8.384 4.677 0 7.509 2.882 7.591 6.688H18.48c-.148-1.417-1.152-2.603-2.601-2.603-1.878 0-3.047 1.664-3.047 4.316v1.219c0 2.882 1.17 4.562 3.063 4.562 1.795 0 2.503-1.186 2.635-2.487h4.775C23.073 21.924 19.879 24 15.647 24c-4.973 0-8.134-3.196-8.134-8.582zM32.846 24c-4.94 0-8.331-2.9-8.331-8.5v-1.4c0-5.469 3.507-8.351 8.134-8.351 4.906 0 8.068 3.245 8.068 8.434v1.762H29.668v.593c0 2.24 1.384 3.575 3.195 3.575 1.564 0 2.733-.775 2.947-2.076h4.792C40.338 20.804 38.066 24 32.846 24zm-3.178-11.086h5.994v-.016c0-1.944-1.17-3.377-2.964-3.377-1.811 0-3.03 1.433-3.03 3.377v.016zm23.704 10.954c-2.487 0-4.265-1.153-5.022-2.965h-.247v2.768h-5.236V0h5.285v8.73h.247c.708-1.696 2.602-2.85 4.989-2.85 3.919 0 6.504 2.834 6.504 8.253v1.45c0 5.353-2.552 8.285-6.52 8.285zm-2.01-4.085c1.828 0 3.08-1.482 3.08-4.349v-1.12c0-2.866-1.268-4.332-3.08-4.332-1.926 0-3.227 1.45-3.227 4.332v1.104c0 2.9 1.301 4.365 3.228 4.365zM69.683 5.75c5.334 0 8.348 3.541 8.348 8.483v1.137c0 5.337-3.014 8.631-8.348 8.631-5.352 0-8.365-3.294-8.365-8.615v-1.12c0-4.942 3.03-8.516 8.365-8.516zm0 3.953c-2.223 0-3.014 2.092-3.014 4.48v1.351c0 2.273.758 4.514 3.014 4.514 2.239 0 2.996-2.224 2.996-4.514v-1.35c0-2.422-.806-4.48-2.996-4.48zm15.733 8.137v5.832H80.13V0h5.285v12.964h.247l4.957-6.886h5.977l-6.093 7.561 6.52 10.032h-6.157l-4.43-7.083-1.02 1.251zm11.601-6.424c0-4.019 3.475-5.666 7.393-5.666 4.2 0 7.015 1.944 7.015 5.436h-4.61c-.116-.972-.758-1.96-2.503-1.96-1.45 0-2.306.708-2.306 1.713 0 1.614 2.668 1.811 4.66 2.174 3.21.576 5.335 1.828 5.335 4.974 0 3.674-2.832 5.914-7.805 5.914-4.94 0-7.557-2.273-7.557-5.403h5.12c.116 1.12 1.104 1.91 2.684 1.91 1.663 0 2.47-.806 2.47-1.745 0-1.516-2.206-1.68-4.33-2.109-3.08-.642-5.566-1.943-5.566-5.238z"/>
</svg>
